<mxfile host="app.diagrams.net" agent="Mozilla/5.0 (Windows NT 10.0; Win64; x64) AppleWebKit/537.36 (KHTML, like Gecko) Chrome/141.0.0.0 Safari/537.36" version="28.2.7">
  <diagram name="第 1 页" id="pEPzGr8JVzk4aD1bEKaW">
    <mxGraphModel dx="1737" dy="878" grid="1" gridSize="10" guides="1" tooltips="1" connect="1" arrows="1" fold="1" page="1" pageScale="1" pageWidth="827" pageHeight="1169" math="0" shadow="0">
      <root>
        <mxCell id="0" />
        <mxCell id="1" parent="0" />
        <mxCell id="tqjAG6MXT4f4XY4HCw1w-1" value="" style="rounded=1;whiteSpace=wrap;html=1;fillColor=#99CCFF;strokeColor=none;" vertex="1" parent="1">
          <mxGeometry x="270" y="370" width="490" height="140" as="geometry" />
        </mxCell>
        <mxCell id="tqjAG6MXT4f4XY4HCw1w-2" value="基础服务" style="text;html=1;align=center;verticalAlign=middle;resizable=0;points=[];autosize=1;strokeColor=none;fillColor=none;fontStyle=1;fontSize=13;" vertex="1" parent="1">
          <mxGeometry x="486" y="376" width="80" height="30" as="geometry" />
        </mxCell>
        <mxCell id="tqjAG6MXT4f4XY4HCw1w-3" value="文件服务" style="rounded=1;whiteSpace=wrap;html=1;fontStyle=1;fontSize=13;strokeColor=none;fillColor=#0058AC;fontColor=#FFFFFF;" vertex="1" parent="1">
          <mxGeometry x="324.63" y="410" width="100" height="30" as="geometry" />
        </mxCell>
        <mxCell id="tqjAG6MXT4f4XY4HCw1w-4" value="任务调度" style="rounded=1;whiteSpace=wrap;html=1;fontStyle=1;fontSize=13;strokeColor=none;fillColor=#0058AC;fontColor=#FFFFFF;" vertex="1" parent="1">
          <mxGeometry x="320.75" y="460" width="100" height="30" as="geometry" />
        </mxCell>
        <mxCell id="tqjAG6MXT4f4XY4HCw1w-5" value="数据访问" style="rounded=1;whiteSpace=wrap;html=1;fontStyle=1;fontSize=13;strokeColor=none;fillColor=#0058AC;fontColor=#FFFFFF;" vertex="1" parent="1">
          <mxGeometry x="614.5" y="410" width="100" height="30" as="geometry" />
        </mxCell>
        <mxCell id="tqjAG6MXT4f4XY4HCw1w-6" value="流程管理" style="rounded=1;whiteSpace=wrap;html=1;fontStyle=1;fontSize=13;strokeColor=none;fillColor=#0058AC;fontColor=#FFFFFF;" vertex="1" parent="1">
          <mxGeometry x="470" y="410" width="100" height="30" as="geometry" />
        </mxCell>
        <mxCell id="tqjAG6MXT4f4XY4HCw1w-7" value="业务配置" style="rounded=1;whiteSpace=wrap;html=1;fontStyle=1;fontSize=13;strokeColor=none;fillColor=#0058AC;fontColor=#FFFFFF;" vertex="1" parent="1">
          <mxGeometry x="470" y="460" width="100" height="30" as="geometry" />
        </mxCell>
        <mxCell id="tqjAG6MXT4f4XY4HCw1w-8" value="Swagger" style="rounded=1;whiteSpace=wrap;html=1;fontStyle=1;fontSize=13;strokeColor=none;fillColor=#0058AC;fontColor=#FFFFFF;" vertex="1" parent="1">
          <mxGeometry x="614.5" y="460" width="100" height="30" as="geometry" />
        </mxCell>
        <mxCell id="tqjAG6MXT4f4XY4HCw1w-9" value="" style="rounded=1;whiteSpace=wrap;html=1;fillColor=#99CCFF;strokeColor=none;" vertex="1" parent="1">
          <mxGeometry x="772.76" y="150" width="148.75" height="360" as="geometry" />
        </mxCell>
        <mxCell id="tqjAG6MXT4f4XY4HCw1w-10" value="系统管理" style="text;html=1;align=center;verticalAlign=middle;resizable=0;points=[];autosize=1;strokeColor=none;fillColor=none;fontStyle=1;fontSize=13;" vertex="1" parent="1">
          <mxGeometry x="803.01" y="162" width="80" height="30" as="geometry" />
        </mxCell>
        <mxCell id="tqjAG6MXT4f4XY4HCw1w-11" value="人员管理" style="rounded=1;whiteSpace=wrap;html=1;fontStyle=1;fontSize=13;strokeColor=none;fillColor=#0058AC;fontColor=#FFFFFF;" vertex="1" parent="1">
          <mxGeometry x="798.51" y="197" width="100" height="30" as="geometry" />
        </mxCell>
        <mxCell id="tqjAG6MXT4f4XY4HCw1w-12" value="角色管理" style="rounded=1;whiteSpace=wrap;html=1;fontStyle=1;fontSize=13;strokeColor=none;fillColor=#0058AC;fontColor=#FFFFFF;" vertex="1" parent="1">
          <mxGeometry x="798.51" y="247" width="100" height="30" as="geometry" />
        </mxCell>
        <mxCell id="tqjAG6MXT4f4XY4HCw1w-13" value="字典管理" style="rounded=1;whiteSpace=wrap;html=1;fontStyle=1;fontSize=13;strokeColor=none;fillColor=#0058AC;fontColor=#FFFFFF;" vertex="1" parent="1">
          <mxGeometry x="798.51" y="297" width="100" height="30" as="geometry" />
        </mxCell>
        <mxCell id="tqjAG6MXT4f4XY4HCw1w-14" value="飞机管理" style="rounded=1;whiteSpace=wrap;html=1;fontStyle=1;fontSize=13;strokeColor=none;fillColor=#0058AC;fontColor=#FFFFFF;" vertex="1" parent="1">
          <mxGeometry x="798.51" y="347" width="100" height="30" as="geometry" />
        </mxCell>
        <mxCell id="tqjAG6MXT4f4XY4HCw1w-15" value="菜单管理" style="rounded=1;whiteSpace=wrap;html=1;fontStyle=1;fontSize=13;strokeColor=none;fillColor=#0058AC;fontColor=#FFFFFF;" vertex="1" parent="1">
          <mxGeometry x="798.51" y="397" width="100" height="30" as="geometry" />
        </mxCell>
        <mxCell id="tqjAG6MXT4f4XY4HCw1w-16" value="权限管理" style="rounded=1;whiteSpace=wrap;html=1;fontStyle=1;fontSize=13;strokeColor=none;fillColor=#0058AC;fontColor=#FFFFFF;" vertex="1" parent="1">
          <mxGeometry x="798.51" y="440" width="100" height="30" as="geometry" />
        </mxCell>
        <mxCell id="tqjAG6MXT4f4XY4HCw1w-17" value="" style="rounded=1;whiteSpace=wrap;html=1;fillColor=#99CCFF;strokeColor=none;" vertex="1" parent="1">
          <mxGeometry x="270" y="150" width="490" height="210" as="geometry" />
        </mxCell>
        <mxCell id="tqjAG6MXT4f4XY4HCw1w-18" value="业务规则管理" style="rounded=1;whiteSpace=wrap;html=1;fontStyle=1;fontSize=13;strokeColor=none;fillColor=#0058AC;fontColor=#FFFFFF;" vertex="1" parent="1">
          <mxGeometry x="331" y="207" width="100" height="30" as="geometry" />
        </mxCell>
        <mxCell id="tqjAG6MXT4f4XY4HCw1w-19" value="更改管理" style="rounded=1;whiteSpace=wrap;html=1;fontStyle=1;fontSize=13;strokeColor=none;fillColor=#0058AC;fontColor=#FFFFFF;" vertex="1" parent="1">
          <mxGeometry x="331" y="256" width="100" height="30" as="geometry" />
        </mxCell>
        <mxCell id="tqjAG6MXT4f4XY4HCw1w-20" value="数据管理" style="rounded=1;whiteSpace=wrap;html=1;fontStyle=1;fontSize=13;strokeColor=none;fillColor=#0058AC;fontColor=#FFFFFF;" vertex="1" parent="1">
          <mxGeometry x="331" y="307" width="100" height="30" as="geometry" />
        </mxCell>
        <mxCell id="tqjAG6MXT4f4XY4HCw1w-21" value="项目管理" style="rounded=1;whiteSpace=wrap;html=1;fontStyle=1;fontSize=13;strokeColor=none;fillColor=#0058AC;fontColor=#FFFFFF;" vertex="1" parent="1">
          <mxGeometry x="463.5" y="207" width="105" height="30" as="geometry" />
        </mxCell>
        <mxCell id="tqjAG6MXT4f4XY4HCw1w-22" value="数据交互" style="rounded=1;whiteSpace=wrap;html=1;fontStyle=1;fontSize=13;strokeColor=none;fillColor=#0058AC;fontColor=#FFFFFF;" vertex="1" parent="1">
          <mxGeometry x="463.5" y="257" width="105" height="30" as="geometry" />
        </mxCell>
        <mxCell id="tqjAG6MXT4f4XY4HCw1w-23" value="内容交互管理" style="rounded=1;whiteSpace=wrap;html=1;fontStyle=1;fontSize=13;strokeColor=none;fillColor=#0058AC;fontColor=#FFFFFF;" vertex="1" parent="1">
          <mxGeometry x="463.5" y="307" width="105" height="30" as="geometry" />
        </mxCell>
        <mxCell id="tqjAG6MXT4f4XY4HCw1w-24" value="数据模块管理" style="rounded=1;whiteSpace=wrap;html=1;fontStyle=1;fontSize=13;strokeColor=none;fillColor=#0058AC;fontColor=#FFFFFF;" vertex="1" parent="1">
          <mxGeometry x="602.01" y="207" width="105" height="30" as="geometry" />
        </mxCell>
        <mxCell id="tqjAG6MXT4f4XY4HCw1w-25" value="实体对象管理" style="rounded=1;whiteSpace=wrap;html=1;fontStyle=1;fontSize=13;strokeColor=none;fillColor=#0058AC;fontColor=#FFFFFF;" vertex="1" parent="1">
          <mxGeometry x="602.01" y="257" width="105" height="30" as="geometry" />
        </mxCell>
        <mxCell id="tqjAG6MXT4f4XY4HCw1w-26" value="CIR库管理" style="rounded=1;whiteSpace=wrap;html=1;fontStyle=1;fontSize=13;strokeColor=none;fillColor=#0058AC;fontColor=#FFFFFF;" vertex="1" parent="1">
          <mxGeometry x="602.01" y="307" width="105" height="30" as="geometry" />
        </mxCell>
        <mxCell id="tqjAG6MXT4f4XY4HCw1w-27" value="应用服务技术出版物源数据分析和跟踪管理" style="text;html=1;align=center;verticalAlign=middle;resizable=0;points=[];autosize=1;strokeColor=none;fillColor=none;fontStyle=1;fontSize=13;" vertex="1" parent="1">
          <mxGeometry x="382.25" y="162" width="270" height="30" as="geometry" />
        </mxCell>
        <mxCell id="tqjAG6MXT4f4XY4HCw1w-28" value="" style="rounded=1;whiteSpace=wrap;html=1;fillColor=#99CCFF;strokeColor=none;" vertex="1" parent="1">
          <mxGeometry x="180" y="60" width="750" height="70" as="geometry" />
        </mxCell>
        <mxCell id="tqjAG6MXT4f4XY4HCw1w-29" value="网关服务" style="text;html=1;align=center;verticalAlign=middle;resizable=0;points=[];autosize=1;strokeColor=none;fillColor=none;fontStyle=1;fontSize=13;" vertex="1" parent="1">
          <mxGeometry x="531.88" y="64" width="80" height="30" as="geometry" />
        </mxCell>
        <mxCell id="tqjAG6MXT4f4XY4HCw1w-30" value="白名单过滤器" style="rounded=1;whiteSpace=wrap;html=1;fontStyle=1;fontSize=13;strokeColor=none;fillColor=#0058AC;fontColor=#FFFFFF;" vertex="1" parent="1">
          <mxGeometry x="300" y="90" width="100" height="30" as="geometry" />
        </mxCell>
        <mxCell id="tqjAG6MXT4f4XY4HCw1w-31" value="登陆鉴权" style="rounded=1;whiteSpace=wrap;html=1;fontStyle=1;fontSize=13;strokeColor=none;fillColor=#0058AC;fontColor=#FFFFFF;" vertex="1" parent="1">
          <mxGeometry x="454.88" y="90" width="100" height="30" as="geometry" />
        </mxCell>
        <mxCell id="tqjAG6MXT4f4XY4HCw1w-32" value="路由转发" style="rounded=1;whiteSpace=wrap;html=1;fontStyle=1;fontSize=13;strokeColor=none;fillColor=#0058AC;fontColor=#FFFFFF;" vertex="1" parent="1">
          <mxGeometry x="604.51" y="90" width="100" height="30" as="geometry" />
        </mxCell>
        <mxCell id="tqjAG6MXT4f4XY4HCw1w-33" value="负载均衡" style="rounded=1;whiteSpace=wrap;html=1;fontStyle=1;fontSize=13;strokeColor=none;fillColor=#0058AC;fontColor=#FFFFFF;" vertex="1" parent="1">
          <mxGeometry x="770" y="90" width="100" height="30" as="geometry" />
        </mxCell>
        <mxCell id="tqjAG6MXT4f4XY4HCw1w-34" value="" style="rounded=1;whiteSpace=wrap;html=1;fillColor=#e1d5e7;strokeColor=none;" vertex="1" parent="1">
          <mxGeometry x="190" y="150" width="60" height="360" as="geometry" />
        </mxCell>
        <mxCell id="tqjAG6MXT4f4XY4HCw1w-35" value="统&lt;div&gt;一&lt;/div&gt;&lt;div&gt;对&lt;/div&gt;&lt;div&gt;外&lt;/div&gt;&lt;div&gt;接&lt;/div&gt;&lt;div&gt;口&lt;/div&gt;&lt;div&gt;&lt;br&gt;&lt;/div&gt;" style="text;html=1;align=center;verticalAlign=middle;resizable=0;points=[];autosize=1;strokeColor=none;fillColor=none;fontStyle=1;fontSize=13;" vertex="1" parent="1">
          <mxGeometry x="198.75" y="256" width="40" height="120" as="geometry" />
        </mxCell>
        <mxCell id="tqjAG6MXT4f4XY4HCw1w-36" value="" style="rounded=1;whiteSpace=wrap;html=1;fillColor=#fff2cc;strokeColor=none;" vertex="1" parent="1">
          <mxGeometry x="941.25" y="60" width="58.75" height="450" as="geometry" />
        </mxCell>
        <mxCell id="tqjAG6MXT4f4XY4HCw1w-37" value="服&lt;div&gt;务&lt;/div&gt;&lt;div&gt;治&lt;/div&gt;&lt;div&gt;理&lt;/div&gt;" style="text;html=1;align=center;verticalAlign=middle;resizable=0;points=[];autosize=1;strokeColor=none;fillColor=none;fontStyle=1;fontSize=13;" vertex="1" parent="1">
          <mxGeometry x="950.6300000000001" y="222" width="40" height="80" as="geometry" />
        </mxCell>
        <mxCell id="tqjAG6MXT4f4XY4HCw1w-38" value="" style="rounded=1;whiteSpace=wrap;html=1;fillColor=#ffe6cc;strokeColor=none;" vertex="1" parent="1">
          <mxGeometry x="70" y="64" width="100" height="446" as="geometry" />
        </mxCell>
        <mxCell id="tqjAG6MXT4f4XY4HCw1w-39" value="外部系统" style="text;html=1;align=center;verticalAlign=middle;resizable=0;points=[];autosize=1;strokeColor=none;fillColor=none;fontStyle=1;fontSize=13;" vertex="1" parent="1">
          <mxGeometry x="80" y="90" width="80" height="30" as="geometry" />
        </mxCell>
        <mxCell id="tqjAG6MXT4f4XY4HCw1w-40" value="CIS" style="rounded=1;whiteSpace=wrap;html=1;fontStyle=1;fontSize=15;strokeColor=#666666;fillColor=#f5f5f5;fontColor=#333333;" vertex="1" parent="1">
          <mxGeometry x="85" y="150" width="70" height="30" as="geometry" />
        </mxCell>
        <mxCell id="tqjAG6MXT4f4XY4HCw1w-41" value="IETP" style="rounded=1;whiteSpace=wrap;html=1;fontStyle=1;fontSize=15;strokeColor=#666666;fillColor=#f5f5f5;fontColor=#333333;" vertex="1" parent="1">
          <mxGeometry x="85" y="240" width="70" height="30" as="geometry" />
        </mxCell>
        <mxCell id="tqjAG6MXT4f4XY4HCw1w-42" value="发布系统" style="rounded=1;whiteSpace=wrap;html=1;fontStyle=1;fontSize=15;strokeColor=#666666;fillColor=#f5f5f5;fontColor=#333333;" vertex="1" parent="1">
          <mxGeometry x="85" y="330" width="70" height="30" as="geometry" />
        </mxCell>
        <mxCell id="tqjAG6MXT4f4XY4HCw1w-43" value="翻译引擎" style="rounded=1;whiteSpace=wrap;html=1;fontStyle=1;fontSize=15;strokeColor=#666666;fillColor=#f5f5f5;fontColor=#333333;" vertex="1" parent="1">
          <mxGeometry x="85" y="425" width="70" height="30" as="geometry" />
        </mxCell>
        <mxCell id="tqjAG6MXT4f4XY4HCw1w-44" value="" style="rounded=1;whiteSpace=wrap;html=1;fillColor=#99CCFF;strokeColor=none;" vertex="1" parent="1">
          <mxGeometry x="261" y="940" width="490" height="90" as="geometry" />
        </mxCell>
        <mxCell id="tqjAG6MXT4f4XY4HCw1w-45" value="计算机辅助翻译服务" style="text;html=1;align=center;verticalAlign=middle;resizable=0;points=[];autosize=1;strokeColor=none;fillColor=none;fontStyle=1;fontSize=13;" vertex="1" parent="1">
          <mxGeometry x="447" y="946" width="140" height="30" as="geometry" />
        </mxCell>
        <mxCell id="tqjAG6MXT4f4XY4HCw1w-46" value="翻译记忆库" style="rounded=1;whiteSpace=wrap;html=1;fontStyle=1;fontSize=13;strokeColor=none;fillColor=#0058AC;fontColor=#FFFFFF;" vertex="1" parent="1">
          <mxGeometry x="315.6300000000001" y="980" width="100" height="30" as="geometry" />
        </mxCell>
        <mxCell id="tqjAG6MXT4f4XY4HCw1w-48" value="语料库" style="rounded=1;whiteSpace=wrap;html=1;fontStyle=1;fontSize=13;strokeColor=none;fillColor=#0058AC;fontColor=#FFFFFF;" vertex="1" parent="1">
          <mxGeometry x="605.5" y="980" width="100" height="30" as="geometry" />
        </mxCell>
        <mxCell id="tqjAG6MXT4f4XY4HCw1w-49" value="术语库" style="rounded=1;whiteSpace=wrap;html=1;fontStyle=1;fontSize=13;strokeColor=none;fillColor=#0058AC;fontColor=#FFFFFF;" vertex="1" parent="1">
          <mxGeometry x="461" y="980" width="100" height="30" as="geometry" />
        </mxCell>
        <mxCell id="tqjAG6MXT4f4XY4HCw1w-52" value="" style="rounded=1;whiteSpace=wrap;html=1;fillColor=#99CCFF;strokeColor=none;" vertex="1" parent="1">
          <mxGeometry x="1020" y="724" width="148.75" height="466" as="geometry" />
        </mxCell>
        <mxCell id="tqjAG6MXT4f4XY4HCw1w-53" value="系统管理服务" style="text;html=1;align=center;verticalAlign=middle;resizable=0;points=[];autosize=1;strokeColor=none;fillColor=none;fontStyle=1;fontSize=13;" vertex="1" parent="1">
          <mxGeometry x="1040.25" y="736" width="100" height="30" as="geometry" />
        </mxCell>
        <mxCell id="tqjAG6MXT4f4XY4HCw1w-54" value="人员管理" style="rounded=1;whiteSpace=wrap;html=1;fontStyle=1;fontSize=13;strokeColor=none;fillColor=#0058AC;fontColor=#FFFFFF;" vertex="1" parent="1">
          <mxGeometry x="1044.37" y="785" width="100" height="30" as="geometry" />
        </mxCell>
        <mxCell id="tqjAG6MXT4f4XY4HCw1w-55" value="角色管理" style="rounded=1;whiteSpace=wrap;html=1;fontStyle=1;fontSize=13;strokeColor=none;fillColor=#0058AC;fontColor=#FFFFFF;" vertex="1" parent="1">
          <mxGeometry x="1044.37" y="844" width="100" height="30" as="geometry" />
        </mxCell>
        <mxCell id="tqjAG6MXT4f4XY4HCw1w-56" value="字典管理" style="rounded=1;whiteSpace=wrap;html=1;fontStyle=1;fontSize=13;strokeColor=none;fillColor=#0058AC;fontColor=#FFFFFF;" vertex="1" parent="1">
          <mxGeometry x="1044.37" y="907" width="100" height="30" as="geometry" />
        </mxCell>
        <mxCell id="tqjAG6MXT4f4XY4HCw1w-57" value="飞机管理" style="rounded=1;whiteSpace=wrap;html=1;fontStyle=1;fontSize=13;strokeColor=none;fillColor=#0058AC;fontColor=#FFFFFF;" vertex="1" parent="1">
          <mxGeometry x="1040" y="980" width="100" height="30" as="geometry" />
        </mxCell>
        <mxCell id="tqjAG6MXT4f4XY4HCw1w-58" value="菜单管理" style="rounded=1;whiteSpace=wrap;html=1;fontStyle=1;fontSize=13;strokeColor=none;fillColor=#0058AC;fontColor=#FFFFFF;" vertex="1" parent="1">
          <mxGeometry x="1040" y="1050" width="100" height="30" as="geometry" />
        </mxCell>
        <mxCell id="tqjAG6MXT4f4XY4HCw1w-59" value="权限管理" style="rounded=1;whiteSpace=wrap;html=1;fontStyle=1;fontSize=13;strokeColor=none;fillColor=#0058AC;fontColor=#FFFFFF;" vertex="1" parent="1">
          <mxGeometry x="1040" y="1114" width="100" height="30" as="geometry" />
        </mxCell>
        <mxCell id="tqjAG6MXT4f4XY4HCw1w-60" value="" style="rounded=1;whiteSpace=wrap;html=1;fillColor=#99CCFF;strokeColor=none;" vertex="1" parent="1">
          <mxGeometry x="261" y="720" width="490" height="210" as="geometry" />
        </mxCell>
        <mxCell id="tqjAG6MXT4f4XY4HCw1w-61" value="数据模块管理" style="rounded=1;whiteSpace=wrap;html=1;fontStyle=1;fontSize=13;strokeColor=none;fillColor=#0058AC;fontColor=#FFFFFF;" vertex="1" parent="1">
          <mxGeometry x="322" y="777" width="100" height="30" as="geometry" />
        </mxCell>
        <mxCell id="tqjAG6MXT4f4XY4HCw1w-62" value="更改管理" style="rounded=1;whiteSpace=wrap;html=1;fontStyle=1;fontSize=13;strokeColor=none;fillColor=#0058AC;fontColor=#FFFFFF;" vertex="1" parent="1">
          <mxGeometry x="322" y="826" width="100" height="30" as="geometry" />
        </mxCell>
        <mxCell id="tqjAG6MXT4f4XY4HCw1w-63" value="分发交付" style="rounded=1;whiteSpace=wrap;html=1;fontStyle=1;fontSize=13;strokeColor=none;fillColor=#0058AC;fontColor=#FFFFFF;" vertex="1" parent="1">
          <mxGeometry x="322" y="877" width="100" height="30" as="geometry" />
        </mxCell>
        <mxCell id="tqjAG6MXT4f4XY4HCw1w-64" value="项目管理" style="rounded=1;whiteSpace=wrap;html=1;fontStyle=1;fontSize=13;strokeColor=none;fillColor=#0058AC;fontColor=#FFFFFF;" vertex="1" parent="1">
          <mxGeometry x="454.5" y="777" width="105" height="30" as="geometry" />
        </mxCell>
        <mxCell id="tqjAG6MXT4f4XY4HCw1w-65" value="数据交互" style="rounded=1;whiteSpace=wrap;html=1;fontStyle=1;fontSize=13;strokeColor=none;fillColor=#0058AC;fontColor=#FFFFFF;" vertex="1" parent="1">
          <mxGeometry x="454.5" y="827" width="105" height="30" as="geometry" />
        </mxCell>
        <mxCell id="tqjAG6MXT4f4XY4HCw1w-66" value="数据交换" style="rounded=1;whiteSpace=wrap;html=1;fontStyle=1;fontSize=13;strokeColor=none;fillColor=#0058AC;fontColor=#FFFFFF;" vertex="1" parent="1">
          <mxGeometry x="454.5" y="877" width="105" height="30" as="geometry" />
        </mxCell>
        <mxCell id="tqjAG6MXT4f4XY4HCw1w-67" value="实体管理" style="rounded=1;whiteSpace=wrap;html=1;fontStyle=1;fontSize=13;strokeColor=none;fillColor=#0058AC;fontColor=#FFFFFF;" vertex="1" parent="1">
          <mxGeometry x="593.01" y="777" width="105" height="30" as="geometry" />
        </mxCell>
        <mxCell id="tqjAG6MXT4f4XY4HCw1w-68" value="任务管理" style="rounded=1;whiteSpace=wrap;html=1;fontStyle=1;fontSize=13;strokeColor=none;fillColor=#0058AC;fontColor=#FFFFFF;" vertex="1" parent="1">
          <mxGeometry x="593.01" y="827" width="105" height="30" as="geometry" />
        </mxCell>
        <mxCell id="tqjAG6MXT4f4XY4HCw1w-69" value="CIR库管理" style="rounded=1;whiteSpace=wrap;html=1;fontStyle=1;fontSize=13;strokeColor=none;fillColor=#0058AC;fontColor=#FFFFFF;" vertex="1" parent="1">
          <mxGeometry x="593.01" y="877" width="105" height="30" as="geometry" />
        </mxCell>
        <mxCell id="tqjAG6MXT4f4XY4HCw1w-70" value="CSDB的技术出版物编制和管理服务" style="text;html=1;align=center;verticalAlign=middle;resizable=0;points=[];autosize=1;strokeColor=none;fillColor=none;fontStyle=1;fontSize=13;" vertex="1" parent="1">
          <mxGeometry x="393.25" y="732" width="230" height="30" as="geometry" />
        </mxCell>
        <mxCell id="tqjAG6MXT4f4XY4HCw1w-71" value="" style="rounded=1;whiteSpace=wrap;html=1;fillColor=#99CCFF;strokeColor=none;" vertex="1" parent="1">
          <mxGeometry x="171" y="630" width="999" height="70" as="geometry" />
        </mxCell>
        <mxCell id="tqjAG6MXT4f4XY4HCw1w-72" value="网关服务" style="text;html=1;align=center;verticalAlign=middle;resizable=0;points=[];autosize=1;strokeColor=none;fillColor=none;fontStyle=1;fontSize=13;" vertex="1" parent="1">
          <mxGeometry x="680.0000000000001" y="634" width="80" height="30" as="geometry" />
        </mxCell>
        <mxCell id="tqjAG6MXT4f4XY4HCw1w-73" value="白名单过滤器" style="rounded=1;whiteSpace=wrap;html=1;fontStyle=1;fontSize=13;strokeColor=none;fillColor=#0058AC;fontColor=#FFFFFF;" vertex="1" parent="1">
          <mxGeometry x="400" y="660" width="100" height="30" as="geometry" />
        </mxCell>
        <mxCell id="tqjAG6MXT4f4XY4HCw1w-74" value="登陆鉴权" style="rounded=1;whiteSpace=wrap;html=1;fontStyle=1;fontSize=13;strokeColor=none;fillColor=#0058AC;fontColor=#FFFFFF;" vertex="1" parent="1">
          <mxGeometry x="604.5100000000001" y="660" width="100" height="30" as="geometry" />
        </mxCell>
        <mxCell id="tqjAG6MXT4f4XY4HCw1w-75" value="路由转发" style="rounded=1;whiteSpace=wrap;html=1;fontStyle=1;fontSize=13;strokeColor=none;fillColor=#0058AC;fontColor=#FFFFFF;" vertex="1" parent="1">
          <mxGeometry x="788.21" y="660" width="100" height="30" as="geometry" />
        </mxCell>
        <mxCell id="tqjAG6MXT4f4XY4HCw1w-76" value="负载均衡" style="rounded=1;whiteSpace=wrap;html=1;fontStyle=1;fontSize=13;strokeColor=none;fillColor=#0058AC;fontColor=#FFFFFF;" vertex="1" parent="1">
          <mxGeometry x="975.63" y="660" width="100" height="30" as="geometry" />
        </mxCell>
        <mxCell id="tqjAG6MXT4f4XY4HCw1w-77" value="" style="rounded=1;whiteSpace=wrap;html=1;fillColor=#e1d5e7;strokeColor=none;" vertex="1" parent="1">
          <mxGeometry x="181" y="720" width="60" height="470" as="geometry" />
        </mxCell>
        <mxCell id="tqjAG6MXT4f4XY4HCw1w-78" value="统&lt;div&gt;一&lt;/div&gt;&lt;div&gt;对&lt;/div&gt;&lt;div&gt;外&lt;/div&gt;&lt;div&gt;接&lt;/div&gt;&lt;div&gt;口&lt;/div&gt;&lt;div&gt;&lt;br&gt;&lt;/div&gt;" style="text;html=1;align=center;verticalAlign=middle;resizable=0;points=[];autosize=1;strokeColor=none;fillColor=none;fontStyle=1;fontSize=13;" vertex="1" parent="1">
          <mxGeometry x="189.75" y="826" width="40" height="120" as="geometry" />
        </mxCell>
        <mxCell id="tqjAG6MXT4f4XY4HCw1w-79" value="" style="rounded=1;whiteSpace=wrap;html=1;fillColor=#fff2cc;strokeColor=none;" vertex="1" parent="1">
          <mxGeometry x="1182" y="634" width="58.75" height="556" as="geometry" />
        </mxCell>
        <mxCell id="tqjAG6MXT4f4XY4HCw1w-80" value="服&lt;div&gt;务&lt;/div&gt;&lt;div&gt;治&lt;/div&gt;&lt;div&gt;理&lt;/div&gt;" style="text;html=1;align=center;verticalAlign=middle;resizable=0;points=[];autosize=1;strokeColor=none;fillColor=none;fontStyle=1;fontSize=13;" vertex="1" parent="1">
          <mxGeometry x="1191.38" y="792" width="40" height="80" as="geometry" />
        </mxCell>
        <mxCell id="tqjAG6MXT4f4XY4HCw1w-81" value="" style="rounded=1;whiteSpace=wrap;html=1;fillColor=#ffe6cc;strokeColor=none;" vertex="1" parent="1">
          <mxGeometry x="85" y="634" width="69" height="556" as="geometry" />
        </mxCell>
        <mxCell id="tqjAG6MXT4f4XY4HCw1w-82" value="外&lt;div&gt;部&lt;/div&gt;&lt;div&gt;系&lt;/div&gt;&lt;div&gt;统&lt;/div&gt;" style="text;html=1;align=center;verticalAlign=middle;resizable=0;points=[];autosize=1;strokeColor=none;fillColor=none;fontStyle=1;fontSize=13;" vertex="1" parent="1">
          <mxGeometry x="99.5" y="827" width="40" height="80" as="geometry" />
        </mxCell>
        <mxCell id="tqjAG6MXT4f4XY4HCw1w-87" value="" style="rounded=1;whiteSpace=wrap;html=1;fillColor=#99CCFF;strokeColor=none;" vertex="1" parent="1">
          <mxGeometry x="760" y="720" width="250" height="160" as="geometry" />
        </mxCell>
        <mxCell id="tqjAG6MXT4f4XY4HCw1w-88" value="手册XML 编辑服务" style="text;html=1;align=center;verticalAlign=middle;resizable=0;points=[];autosize=1;strokeColor=none;fillColor=none;fontStyle=1;fontSize=13;" vertex="1" parent="1">
          <mxGeometry x="825.63" y="732" width="130" height="30" as="geometry" />
        </mxCell>
        <mxCell id="tqjAG6MXT4f4XY4HCw1w-91" value="文本编辑" style="rounded=1;whiteSpace=wrap;html=1;fontStyle=1;fontSize=13;strokeColor=none;fillColor=#0058AC;fontColor=#FFFFFF;" vertex="1" parent="1">
          <mxGeometry x="791.0200000000001" y="779.5" width="91.99" height="30" as="geometry" />
        </mxCell>
        <mxCell id="tqjAG6MXT4f4XY4HCw1w-92" value="图形、多媒体" style="rounded=1;whiteSpace=wrap;html=1;fontStyle=1;fontSize=13;strokeColor=none;fillColor=#0058AC;fontColor=#FFFFFF;" vertex="1" parent="1">
          <mxGeometry x="896.72" y="779.5" width="94.37" height="30" as="geometry" />
        </mxCell>
        <mxCell id="tqjAG6MXT4f4XY4HCw1w-93" value="公共信息库" style="rounded=1;whiteSpace=wrap;html=1;fontStyle=1;fontSize=13;strokeColor=none;fillColor=#0058AC;fontColor=#FFFFFF;" vertex="1" parent="1">
          <mxGeometry x="788.21" y="827" width="94.37" height="30" as="geometry" />
        </mxCell>
        <mxCell id="tqjAG6MXT4f4XY4HCw1w-94" value="适用性库" style="rounded=1;whiteSpace=wrap;html=1;fontStyle=1;fontSize=13;strokeColor=none;fillColor=#0058AC;fontColor=#FFFFFF;" vertex="1" parent="1">
          <mxGeometry x="898.51" y="827" width="94.37" height="30" as="geometry" />
        </mxCell>
        <mxCell id="tqjAG6MXT4f4XY4HCw1w-95" value="" style="rounded=1;whiteSpace=wrap;html=1;fillColor=#99CCFF;strokeColor=none;" vertex="1" parent="1">
          <mxGeometry x="762.82" y="890" width="250" height="140" as="geometry" />
        </mxCell>
        <mxCell id="tqjAG6MXT4f4XY4HCw1w-96" value="技术出版物验证管理服务" style="text;html=1;align=center;verticalAlign=middle;resizable=0;points=[];autosize=1;strokeColor=none;fillColor=none;fontStyle=1;fontSize=13;" vertex="1" parent="1">
          <mxGeometry x="808.4500000000002" y="902" width="170" height="30" as="geometry" />
        </mxCell>
        <mxCell id="tqjAG6MXT4f4XY4HCw1w-97" value="验证计划" style="rounded=1;whiteSpace=wrap;html=1;fontStyle=1;fontSize=13;strokeColor=none;fillColor=#0058AC;fontColor=#FFFFFF;" vertex="1" parent="1">
          <mxGeometry x="780.2300000000001" y="940" width="91.99" height="30" as="geometry" />
        </mxCell>
        <mxCell id="tqjAG6MXT4f4XY4HCw1w-98" value="验证记录管理" style="rounded=1;whiteSpace=wrap;html=1;fontStyle=1;fontSize=13;strokeColor=none;fillColor=#0058AC;fontColor=#FFFFFF;" vertex="1" parent="1">
          <mxGeometry x="901.33" y="940" width="94.37" height="30" as="geometry" />
        </mxCell>
        <mxCell id="tqjAG6MXT4f4XY4HCw1w-99" value="验证状态跟踪" style="rounded=1;whiteSpace=wrap;html=1;fontStyle=1;fontSize=13;strokeColor=none;fillColor=#0058AC;fontColor=#FFFFFF;" vertex="1" parent="1">
          <mxGeometry x="780.23" y="980" width="94.37" height="30" as="geometry" />
        </mxCell>
        <mxCell id="tqjAG6MXT4f4XY4HCw1w-100" value="验证单" style="rounded=1;whiteSpace=wrap;html=1;fontStyle=1;fontSize=13;strokeColor=none;fillColor=#0058AC;fontColor=#FFFFFF;" vertex="1" parent="1">
          <mxGeometry x="901.33" y="980" width="94.37" height="30" as="geometry" />
        </mxCell>
        <mxCell id="tqjAG6MXT4f4XY4HCw1w-101" value="" style="rounded=1;whiteSpace=wrap;html=1;fillColor=#99CCFF;strokeColor=none;" vertex="1" parent="1">
          <mxGeometry x="261" y="1044" width="490" height="146" as="geometry" />
        </mxCell>
        <mxCell id="tqjAG6MXT4f4XY4HCw1w-102" value="技术出版物发布管理" style="text;html=1;align=center;verticalAlign=middle;resizable=0;points=[];autosize=1;strokeColor=none;fillColor=none;fontStyle=1;fontSize=13;" vertex="1" parent="1">
          <mxGeometry x="447" y="1050" width="140" height="30" as="geometry" />
        </mxCell>
        <mxCell id="tqjAG6MXT4f4XY4HCw1w-103" value="样式创建与配置" style="rounded=1;whiteSpace=wrap;html=1;fontStyle=1;fontSize=13;strokeColor=none;fillColor=#0058AC;fontColor=#FFFFFF;" vertex="1" parent="1">
          <mxGeometry x="315.63" y="1084" width="124.37" height="30" as="geometry" />
        </mxCell>
        <mxCell id="tqjAG6MXT4f4XY4HCw1w-104" value="XML、PDF 发布" style="rounded=1;whiteSpace=wrap;html=1;fontStyle=1;fontSize=13;strokeColor=none;fillColor=#0058AC;fontColor=#FFFFFF;" vertex="1" parent="1">
          <mxGeometry x="462.63" y="1084" width="124.37" height="30" as="geometry" />
        </mxCell>
        <mxCell id="tqjAG6MXT4f4XY4HCw1w-105" value="PM 管理" style="rounded=1;whiteSpace=wrap;html=1;fontStyle=1;fontSize=13;strokeColor=none;fillColor=#0058AC;fontColor=#FFFFFF;" vertex="1" parent="1">
          <mxGeometry x="604.51" y="1084" width="105.49" height="30" as="geometry" />
        </mxCell>
        <mxCell id="tqjAG6MXT4f4XY4HCw1w-106" value="FOP引擎" style="rounded=1;whiteSpace=wrap;html=1;fontStyle=1;fontSize=13;strokeColor=none;fillColor=#0058AC;fontColor=#FFFFFF;" vertex="1" parent="1">
          <mxGeometry x="315.63" y="1130" width="124.37" height="30" as="geometry" />
        </mxCell>
        <mxCell id="tqjAG6MXT4f4XY4HCw1w-107" value="预发布" style="rounded=1;whiteSpace=wrap;html=1;fontStyle=1;fontSize=13;strokeColor=none;fillColor=#0058AC;fontColor=#FFFFFF;" vertex="1" parent="1">
          <mxGeometry x="463.82" y="1130" width="124.37" height="30" as="geometry" />
        </mxCell>
        <mxCell id="tqjAG6MXT4f4XY4HCw1w-108" value="多线程发布管理" style="rounded=1;whiteSpace=wrap;html=1;fontStyle=1;fontSize=13;strokeColor=none;fillColor=#0058AC;fontColor=#FFFFFF;" vertex="1" parent="1">
          <mxGeometry x="604.51" y="1130" width="105.49" height="30" as="geometry" />
        </mxCell>
        <mxCell id="tqjAG6MXT4f4XY4HCw1w-110" value="" style="rounded=1;whiteSpace=wrap;html=1;fillColor=#99CCFF;strokeColor=none;" vertex="1" parent="1">
          <mxGeometry x="761.45" y="1050" width="250" height="140" as="geometry" />
        </mxCell>
        <mxCell id="tqjAG6MXT4f4XY4HCw1w-111" value="技术出版物更改管理" style="text;html=1;align=center;verticalAlign=middle;resizable=0;points=[];autosize=1;strokeColor=none;fillColor=none;fontStyle=1;fontSize=13;" vertex="1" parent="1">
          <mxGeometry x="822.0800000000002" y="1062" width="140" height="30" as="geometry" />
        </mxCell>
        <mxCell id="tqjAG6MXT4f4XY4HCw1w-112" value="DM修改及版本控制" style="rounded=1;whiteSpace=wrap;html=1;fontStyle=1;fontSize=13;strokeColor=none;fillColor=#0058AC;fontColor=#FFFFFF;" vertex="1" parent="1">
          <mxGeometry x="778.8600000000001" y="1100" width="91.99" height="30" as="geometry" />
        </mxCell>
        <mxCell id="tqjAG6MXT4f4XY4HCw1w-113" value="PM版本" style="rounded=1;whiteSpace=wrap;html=1;fontStyle=1;fontSize=13;strokeColor=none;fillColor=#0058AC;fontColor=#FFFFFF;" vertex="1" parent="1">
          <mxGeometry x="899.96" y="1100" width="94.37" height="30" as="geometry" />
        </mxCell>
        <mxCell id="tqjAG6MXT4f4XY4HCw1w-114" value="DMRL 版本管理" style="rounded=1;whiteSpace=wrap;html=1;fontStyle=1;fontSize=13;strokeColor=none;fillColor=#0058AC;fontColor=#FFFFFF;" vertex="1" parent="1">
          <mxGeometry x="778.86" y="1140" width="216.96" height="30" as="geometry" />
        </mxCell>
      </root>
    </mxGraphModel>
  </diagram>
</mxfile>
